<?xml version="1.0" encoding="utf-8"?>
<!-- Generator: Adobe Illustrator 19.0.0, SVG Export Plug-In . SVG Version: 6.00 Build 0)  -->
<svg xmlns="http://www.w3.org/2000/svg" xmlns:xlink="http://www.w3.org/1999/xlink" version="1.1" id="Layer_1" x="0px" y="0px" viewBox="0 2 98 98" style="enable-background:new 0 2 98 98;" xml:space="preserve" width="512" height="512">
<style type="text/css">
	.st0{fill:url(#SVGID_1_);}
</style>
<linearGradient id="SVGID_1_" gradientUnits="userSpaceOnUse" x1="49" y1="88" x2="49" y2="18" gradientTransform="matrix(1 0 0 -1 0 104)">
	<stop offset="0" style="stop-color:#00EFD1"/>
	<stop offset="1" style="stop-color:#00ACEA"/>
</linearGradient>
<path class="st0" d="M82.5,29h-17v-6c0-3.9-3.1-7-7-7h-18c-3.9,0-7,3.1-7,7v6h-18c-2.8,0-5,2.2-5,5v47c0,2.8,2.2,5,5,5h67  c2.8,0,5-2.2,5-5V34C87.5,31.2,85.3,29,82.5,29z M39.5,23c0-0.5,0.5-1,1-1h18c0.5,0,1,0.5,1,1v6h-20V23z M81.5,35v11h-65V35H81.5z   M16.5,80V52h65v28H16.5z"/>
</svg>
